<?xml version="1.0" encoding="utf-8"?>
<!-- Generator: Adobe Illustrator 16.0.0, SVG Export Plug-In . SVG Version: 6.00 Build 0)  -->
<!DOCTYPE svg PUBLIC "-//W3C//DTD SVG 1.1//EN" "http://www.w3.org/Graphics/SVG/1.1/DTD/svg11.dtd">
<svg version="1.1" id="Layer_1" xmlns="http://www.w3.org/2000/svg" xmlns:xlink="http://www.w3.org/1999/xlink" x="0px" y="0px"
	 width="846.7px" height="85.3px" viewBox="0 0 846.7 85.3" preserveAspectRatio="xMinYMin meet" enable-background="new 0 0 846.7 85.3" xml:space="preserve">
<g>
	<path fill="#FFFFFF" d="M47.3,4.1v15.2H35.6V80H15.9V19.2H4.2V4.1H47.3z"/>
	<path fill="#FFFFFF" d="M52.1,4.1H85v15.2H71.8v14.4h12.3v14.4H71.8v16.7h14.5V80H52.1V4.1z"/>
	<path fill="#FFFFFF" d="M136.4,4.1V80h-17.3l-10.3-34.5V80H92.3V4.1h16.5l11.1,34.2V4.1H136.4z"/>
	<path fill="#FFFFFF" d="M173.2,4.1V80h-18.9V39.3c0-5.9-0.1-9.4-0.4-10.6c-0.3-1.2-1.1-2.1-2.3-2.7c-1.2-0.6-4.1-0.9-8.5-0.9h-1.9
		v-8.8c9.2-2,16.1-6,20.9-12.2H173.2z"/>
	<path fill="#FFFFFF" d="M225.5,29.7V55c0,5.8-0.3,9.9-0.9,12.6c-0.6,2.6-1.9,5.1-3.9,7.4s-4.3,3.9-7.1,4.9c-2.8,1-5.9,1.5-9.3,1.5
		c-4.5,0-8.3-0.5-11.3-1.6c-3-1.1-5.4-2.7-7.2-4.9c-1.8-2.2-3-4.6-3.8-7c-0.8-2.4-1.1-6.4-1.1-11.7V29.7c0-7,0.6-12.2,1.8-15.7
		s3.6-6.2,7.2-8.3c3.6-2.1,7.9-3.1,13-3.1c4.2,0,7.9,0.7,11.2,2.2c3.3,1.5,5.7,3.2,7.4,5.3c1.6,2.1,2.7,4.5,3.3,7.1
		C225.3,19.8,225.5,24,225.5,29.7z M206.6,23.4c0-4-0.2-6.6-0.6-7.6c-0.4-1-1.3-1.5-2.7-1.5s-2.3,0.5-2.8,1.6s-0.7,3.6-0.7,7.5v37
		c0,4.4,0.2,7.1,0.6,8c0.4,0.9,1.3,1.4,2.7,1.4s2.3-0.5,2.8-1.6c0.4-1.1,0.7-3.5,0.7-7.2V23.4z"/>
	<path fill="#388FD2" d="M242.7,4.1h32.9v15.2h-13.2v14.4h12.3v14.4h-12.3v16.7h14.5V80h-34.2V4.1z"/>
	<path fill="#388FD2" d="M327,4.1V80h-17.3l-10.3-34.5V80h-16.5V4.1h16.5l11.1,34.2V4.1H327z"/>
	<path fill="#388FD2" d="M374.9,4.1v15.2h-11.7V80h-19.7V19.2h-11.7V4.1H374.9z"/>
	<path fill="#388FD2" d="M379.7,4.1h32.9v15.2h-13.2v14.4h12.3v14.4h-12.3v16.7h14.5V80h-34.2V4.1z"/>
	<path fill="#388FD2" d="M419.9,4.1h14c9.3,0,15.6,0.4,18.9,1.1c3.3,0.7,6,2.6,8.1,5.5c2.1,3,3.1,7.7,3.1,14.1
		c0,5.9-0.7,9.9-2.2,11.9s-4.4,3.2-8.7,3.7c3.9,1,6.5,2.3,7.9,3.9c1.3,1.6,2.2,3.1,2.5,4.5c0.3,1.4,0.5,5.1,0.5,11.2v20h-18.3V54.7
		c0-4.1-0.3-6.6-1-7.5c-0.6-1-2.3-1.5-5-1.5v34.2H420L419.9,4.1L419.9,4.1z M439.6,17v16.9c2.2,0,3.8-0.3,4.7-0.9
		c0.9-0.6,1.3-2.6,1.3-5.9v-4.2c0-2.4-0.4-4-1.3-4.7C443.5,17.4,441.9,17,439.6,17z"/>
	<path fill="#388FD2" d="M511.6,4.1v15.2h-11.7V80h-19.7V19.2h-11.7V4.1H511.6z"/>
	<path fill="#388FD2" d="M546.7,4.1L558,80h-20.2l-1.1-13.7h-7l-1.2,13.6h-20.4L518.2,4h28.5V4.1z M536.2,52.9c-1-8.6-2-19.2-3-31.9
		c-2,14.5-3.3,25.2-3.8,31.9H536.2z"/>
	<path fill="#388FD2" d="M581.3,4.1V80h-19.7V4.1H581.3z"/>
	<path fill="#388FD2" d="M633.6,4.1V80h-17.3L606,45.5V80h-16.5V4.1H606l11.1,34.2V4.1H633.6z"/>
	<path fill="#388FD2" d="M702.7,4.1V80h-17.2V28.8L678.6,80h-12.2l-7.2-50.1V80H642V4.1h25.5c0.8,4.6,1.5,9.9,2.3,16.1l2.8,19.3
		l4.5-35.4H702.7z"/>
	<path fill="#388FD2" d="M710.9,4.1h32.9v15.2h-13.1v14.4H743v14.4h-12.3v16.7h14.5V80H711L710.9,4.1L710.9,4.1z"/>
	<path fill="#388FD2" d="M795.2,4.1V80h-17.3l-10.3-34.5V80h-16.5V4.1h16.5l11.1,34.1V4.1H795.2z"/>
	<path fill="#388FD2" d="M843.1,4.1v15.2h-11.7V80h-19.7V19.2H800V4.1H843.1z"/>
</g>
</svg>
